PathFileType	4	(X/Y/Z)	pose_F01_0-96.trc
DataRate	CameraRate	NumFrames	NumMarkers	Units	OrigDataRate	OrigDataStartFrame	OrigNumFrames
30	30	10	21	m	30	0	96
Frame#	Time	CHip			RHip			RKnee			RAnkle			RBigToe			RSmallToe			RHeel			LHip			LKnee			LAnkle			LBigToe			LSmallToe			LHeel			Neck			Nose			RShoulder			RElbow			RWrist			LShoulder			LElbow			LWrist			
		X1	Y1	Z1	X2	Y2	Z2	X3	Y3	Z3	X4	Y4	Z4	X5	Y5	Z5	X6	Y6	Z6	X7	Y7	Z7	X8	Y8	Z8	X9	Y9	Z9	X10	Y10	Z10	X11	Y11	Z11	X12	Y12	Z12	X13	Y13	Z13	X14	Y14	Z14	X15	Y15	Z15	X16	Y16	Z16	X17	Y17	Z17	X18	Y18	Z18	X19	Y19	Z19	X20	Y20	Z20	X21	Y21	Z21	
0	0.0	-0.1771049713114453	1.8571479882253135	-0.5312063067164318	-0.1881234450951633	1.8637659367328039	-0.4589730740366696	-0.18202488725174437	1.7108063598422256	-0.4661742756943077	-0.18843835188922445	1.67406248833791	-0.43714442783672414							-0.16339081655689036	1.563512851446416	-0.44834747786038387	-0.16262893604756318	1.854865040209874	-0.5860572792196433	-0.14603022129113685	1.7083966221174365	-0.5553987904602141	-0.15560803271033027	1.5896831448138058	-0.5221962403731009	-0.18096251083365666	1.5433499194153817	-0.5516983924948673	-0.16703778262278332	1.5556189558428473	-0.5719026792352575	-0.15461792096115748	1.5674949606506063	-0.49782322251647426	-0.16511457276246855	2.0381459535324318	-0.5425318276240906	-0.19923512135541505	2.1016916237479917	-0.5635034106306243	-0.182353702737199	2.0355063177900385	-0.45601450688685924	-0.19080817868127808	1.9506116227788768	-0.42697630135708914	-0.20171736396438292	1.8664570495488275	-0.42763348847554006	-0.14278573226234229	2.040996663053758	-0.6283294254849794	-0.12978491126707534	1.9474935809202463	-0.6236041527460608	-0.1378869541052154	1.8718346809382578	-0.6476693501867294
1	0.03333333333333333	-0.1769134412698577	1.8611116873531128	-0.5318832953341495	-0.1888935807986261	1.8653192119608495	-0.46247599955198476	-0.18121601768896994	1.7147592663674933	-0.46331911233631246	-0.18843835188922445	1.67406248833791	-0.43714442783672414							-0.16339081655689036	1.563512851446416	-0.44834747786038387	-0.1622999843037992	1.8600313620620554	-0.5868362062829657	-0.14790804034056976	1.712611865004862	-0.5539199516877705	-0.1557026968558201	1.587475699822767	-0.5218484340320482	-0.18311518231819968	1.5434489383832215	-0.5495171399627096	-0.16945579613196995	1.5544569884910084	-0.5690518857727683	-0.15308809157096354	1.5695729598061507	-0.5003511117244909	-0.16511004282147232	2.038170805223435	-0.5425304183081098	-0.19922784775298374	2.101771786450132	-0.5635016713060318	-0.1823584282635775	2.0354728769286656	-0.45597026708971394	-0.190856027487292	1.9496162482482742	-0.4270647346005695	-0.202820926108652	1.868991286506617	-0.42278552049420093	-0.14275805654630414	2.0410904754767545	-0.6283631070872852	-0.13063440219122568	1.9506311369561424	-0.626954719482993	-0.13797573303030267	1.8733797599389619	-0.6477085822345416
2	0.06666666666666667	-0.1767219112282701	1.8650753864809122	-0.5325602839518672	-0.18966371650208888	1.866872487188895	-0.46597892506729993	-0.18040714812619552	1.718712172892761	-0.4604639489783172	-0.18843835188922445	1.67406248833791	-0.43714442783672414							-0.16339081655689036	1.563512851446416	-0.44834747786038387	-0.1619710325600352	1.8651976839142368	-0.5876151333462881	-0.14978585939000266	1.7168271078922877	-0.5524411129153269	-0.15579736100130995	1.5852682548317283	-0.5215006276909955	-0.1852678538027427	1.5435479573510613	-0.5473358874305518	-0.1718738096411566	1.5532950211391696	-0.5662010923102792	-0.1515582621807696	1.5716509589616952	-0.5028790009325075	-0.1651055128804761	2.0381956569144384	-0.542529008992129	-0.19922057415055244	2.1018519491522722	-0.5634999319814393	-0.18236315378995602	2.0354394360672927	-0.45592602729256865	-0.1909038762933059	1.9486208737176716	-0.42715316784404983	-0.20392448825292106	1.8715255234644064	-0.4179375525128618	-0.14273038083026598	2.041184287899751	-0.6283967886895909	-0.13148389311537603	1.9537686929920386	-0.6303052862199251	-0.13806451195538993	1.874924838939666	-0.6477478142823538
3	0.1	-0.17653038118668252	1.8690390856087116	-0.5332372725695849	-0.19043385220555167	1.8684257624169407	-0.4694818505826151	-0.1795982785634211	1.7226650794180287	-0.457608785620322	-0.18843835188922445	1.67406248833791	-0.43714442783672414							-0.16339081655689036	1.563512851446416	-0.44834747786038387	-0.1616420808162712	1.8703640057664181	-0.5883940604096105	-0.15166367843943557	1.7210423507797132	-0.5509622741428833	-0.15589202514679978	1.5830608098406895	-0.5211528213499428	-0.1874205252872857	1.5436469763189011	-0.5451546348983941	-0.17429182315034322	1.5521330537873308	-0.56335029884779	-0.15002843279057565	1.5737289581172396	-0.5054068901405241	-0.16510098293947986	2.0382205086054417	-0.5425275996761482	-0.19921330054812114	2.1019321118544125	-0.5634981926568469	-0.18236787931633452	2.03540599520592	-0.45588178749542335	-0.19095172509931982	1.947625499187069	-0.4272416010875302	-0.20502805039719013	1.8740597604221958	-0.41308958453152267	-0.14270270511422783	2.0412781003227476	-0.6284304702918967	-0.13233338403952638	1.9569062490279348	-0.6336558529568572	-0.1381532908804772	1.87646991794037	-0.647787046330166
4	0.13333333333333333	-0.17633885114509493	1.873002784736511	-0.5339142611873026	-0.19120398790901447	1.8699790376449863	-0.47298477609793027	-0.17878940900064666	1.7266179859432964	-0.45475362226232674	-0.18843835188922445	1.67406248833791	-0.43714442783672414							-0.16339081655689036	1.563512851446416	-0.44834747786038387	-0.16131312907250722	1.8755303276185995	-0.5891729874729329	-0.15354149748886847	1.7252575936671388	-0.5494834353704398	-0.15598668929228962	1.5808533648496508	-0.5208050150088901	-0.1895731967718287	1.543745995286741	-0.5429733823662364	-0.17670983665952986	1.550971086435492	-0.5604995053853008	-0.1484986034003817	1.575806957272784	-0.5079347793485407	-0.16509645299848363	2.038245360296445	-0.5425261903601674	-0.19920602694568984	2.102012274556553	-0.5634964533322544	-0.18237260484271303	2.035372554344547	-0.45583754769827806	-0.19099957390533373	1.9466301246564663	-0.4273300343310105	-0.2061316125414592	1.8765939973799852	-0.40824161655018354	-0.14267502939818968	2.041371912745744	-0.6284641518942025	-0.13318287496367673	1.960043805063831	-0.6370064196937893	-0.13824206980556447	1.8780149969410742	-0.6478262783779782
5	0.16666666666666666	-0.17638416021773234	1.8705419407703696	-0.5333990519434062	-0.19035871610872504	1.8685828134088684	-0.4695241134559644	-0.17858394151601817	1.7224034648602562	-0.4543142691571606	-0.18843835188922445	1.67406248833791	-0.43714442783672414							-0.16339081655689036	1.563512851446416	-0.44834747786038387	-0.16168301283969264	1.8706853462591533	-0.588353254846509	-0.15376270836463182	1.721200505698305	-0.5486440326935632	-0.15802702380537603	1.5808528352221045	-0.5186645605426969	-0.18987888026695082	1.542269311761981	-0.5422411426074414	-0.175809954160627	1.550786938491461	-0.5571146840291407	-0.15047313494844747	1.5730942940634216	-0.5051748049310076	-0.16427389719631558	2.0381368624111813	-0.5395952030475942	-0.19922085749842888	2.1020209729622814	-0.563495162494781	-0.18235113304261957	2.035415621866705	-0.45582942382059694	-0.18885184425055196	1.9475631919408365	-0.4292227394865303	-0.20633942655536686	1.873187676337854	-0.4103743247150228	-0.14267482479760618	2.0414423063289022	-0.6283816635814613	-0.13341779549948865	1.9573386151127734	-0.6370866933362019	-0.13872826806108418	1.8751884412502557	-0.6475391448640531
6	0.2	-0.175198489883392	1.8729411520015173	-0.530537904364012	-0.1889709094513756	1.8719347158252708	-0.46661153859720367	-0.17647727090410367	1.7234869674943354	-0.4568726477488248	-0.18843835188922445	1.67406248833791	-0.43714442783672414							-0.16339081655689036	1.563512851446416	-0.44834747786038387	-0.1612373586399118	1.874109425603446	-0.5888301459164702	-0.15344673653002797	1.7219525887338574	-0.5490649119960739	-0.15605134081679084	1.5809615238128276	-0.5208267537184045	-0.18866124454912245	1.5446000482937237	-0.5484373331854402	-0.17693111293597263	1.5523464132622409	-0.5603115194243781	-0.15015915717017017	1.5742034072130782	-0.5058079390636668	-0.16429191448986924	2.038123334792415	-0.539547604479916	-0.19922378133559043	2.1019506231127485	-0.5635029427377819	-0.18234614525304904	2.035392938690109	-0.4557662228191198	-0.19090691291919604	1.9477916398246753	-0.42728290439017186	-0.20545335609933998	1.8743184923283196	-0.4072093608247752	-0.14470117302911406	2.041290685219885	-0.6262364114046233	-0.13326594442146628	1.9585186561733143	-0.6370528751458356	-0.13836692343602428	1.875188785939114	-0.6476106784789144
7	0.23333333333333334	-0.17641540756376345	1.8706472611814076	-0.5333894120757404	-0.1904401790879202	1.8687337241091007	-0.46944774813499823	-0.17864362323905994	1.722504719246401	-0.45431639633658605	-0.18843835188922445	1.67406248833791	-0.43714442783672414							-0.16339081655689036	1.563512851446416	-0.44834747786038387	-0.16162480087025524	1.8732973501750143	-0.5887622254875244	-0.15356982352746512	1.7225396748214046	-0.5490883843463609	-0.1572846992073147	1.5819698095128303	-0.5150544080141032	-0.18959349915997822	1.5436711353036434	-0.5428821448151004	-0.17581236338271572	1.5509270786560267	-0.5571959274461626	-0.15070284885810573	1.574378322422178	-0.5047754327894407	-0.16511010566812248	2.038249384814492	-0.5424984884452858	-0.19921371260413737	2.102016406959323	-0.5634854232102326	-0.18233622629927856	2.0341473629475737	-0.45531178440662884	-0.1899454701005355	1.9476523308807632	-0.4241539977827184	-0.2066203259458365	1.8725709703738775	-0.41043995184107657	-0.1426880851026317	2.0413507269022864	-0.6284528398380612	-0.13409306662048817	1.9590733928940802	-0.6402608901241915	-0.1382653924741386	1.8782399186966883	-0.6480686880054038
8	0.26666666666666666	-0.17560270690870022	1.8691509789262724	-0.530143059604525	-0.19033630158374779	1.8683585318349474	-0.4695052372352265	-0.17959424469006385	1.7198763046171952	-0.45726805194331327	-0.18843835188922445	1.67406248833791	-0.43714442783672414							-0.16339081655689036	1.563512851446416	-0.44834747786038387	-0.16161807200555647	1.8704486116718781	-0.5884080732269222	-0.152778445232302	1.719964733636507	-0.5537339576176469	-0.15708400403312214	1.5808464383236607	-0.5153659699619402	-0.189743680458204	1.5419282113374964	-0.5422671571617811	-0.1757313397973051	1.5507085216681982	-0.557165728505612	-0.15049492828244163	1.5758677665939822	-0.5053495562817424	-0.16509521813633216	2.038204380033764	-0.5425360609667526	-0.20115441304324141	2.101854219329629	-0.5613914444911311	-0.18235121867753717	2.035376090819887	-0.455838533089654	-0.18998393741445024	1.9476467881093609	-0.4241348015245707	-0.2054866040832368	1.8707356195240261	-0.4070118058819496	-0.14270459623421153	2.0413114673489114	-0.6285240691390703	-0.133435332555006	1.9562668367762344	-0.6366989929159882	-0.13858368880227676	1.873446457279763	-0.6474731452606153
9	0.3	-0.17640877149742995	1.870688085879865	-0.5333725172007276	-0.1904050093997771	1.8686542542672013	-0.46940216018036524	-0.17915923672750717	1.7222286501656323	-0.45803697137898775	-0.18843835188922445	1.67406248833791	-0.43714442783672414							-0.16339081655689036	1.563512851446416	-0.44834747786038387	-0.16153335623196935	1.8720412834374096	-0.5885400392989938	-0.15359299078671396	1.7224024892623768	-0.5490212146679155	-0.15840746002638498	1.580349556616048	-0.5177972971734636	-0.18986855429628174	1.5423143202749874	-0.5422423218534983	-0.17670062309274498	1.5506547319904496	-0.5604413661437807	-0.1503464967277109	1.5727876484387686	-0.5048856700299186	-0.16512452190016838	2.0382487757591266	-0.5425069081103887	-0.19922687761834737	2.1019735312223737	-0.5635218502885379	-0.18235502532601405	2.0354205386737254	-0.45582613041982933	-0.18986306578356793	1.9462623808964619	-0.42379437420052884	-0.20550602893560355	1.8699802558253005	-0.40689127901733974	-0.14471069441561105	2.041144450338963	-0.6263233769517561	-0.13345618724992508	1.9569106944999535	-0.6370569336136981	-0.13817721665752278	1.875645966095521	-0.647590347613925
